# xmcd
# 
# Track frame offsets:
#     150
#     48292
#     100034
#     142612
#     185884
#     238797
#     285952
# 
# Disc length: 4560
# 
# Revision: 0
# Processed by: cddbd v1.5.2PL0 Copyright (c) Steve Scherf et al.
# Submitted via: fre:ac v1.0.17
# 
DISCID=5611ce07
DTITLE=Don Winslow - Pacific Paradise
DYEAR=0
DGENRE=Audiobook
TTITLE0=Pacific Paradise
TTITLE1=Pacific Paradise
TTITLE2=Pacific Paradise
TTITLE3=Pacific Paradise
TTITLE4=Pacific Paradise
TTITLE5=Pacific Paradise
TTITLE6=Pacific Paradise
EXTD=
EXTT0=
EXTT1=
EXTT2=
EXTT3=
EXTT4=
EXTT5=
EXTT6=
PLAYORDER=
